<?xml version="1.0" encoding="utf-8"?>
<!-- Generator: Adobe Illustrator 16.0.3, SVG Export Plug-In . SVG Version: 6.00 Build 0)  -->
<!DOCTYPE svg PUBLIC "-//W3C//DTD SVG 1.1//EN" "http://www.w3.org/Graphics/SVG/1.1/DTD/svg11.dtd">
<svg version="1.1" id="Calque_1" xmlns="http://www.w3.org/2000/svg" xmlns:xlink="http://www.w3.org/1999/xlink" x="0px" y="0px"
	 width="320px" height="320px" viewBox="0 0 320 320" enable-background="new 0 0 320 320" xml:space="preserve">
<g>
	<g>
		<path fill="#FFFFFF" d="M261.333,229.334H58.666C43.968,229.334,32,217.365,32,202.666V85.333
			c0-14.699,11.968-26.667,26.666-26.667h66.977c2.293,0,4.33-1.461,5.066-3.648l5.792-17.418
			c2.187-6.539,8.288-10.934,15.189-10.934h59.296c6.891,0,12.992,4.395,15.179,10.934l5.803,17.418
			c0.715,2.187,2.752,3.648,5.056,3.648h24.31c14.699,0,26.667,11.968,26.667,26.667v117.333
			C288,217.365,276.032,229.334,261.333,229.334z M58.666,69.333c-8.821,0-16,7.179-16,16v117.333c0,8.822,7.179,16,16,16h202.667
			c8.821,0,16-7.178,16-16V85.333c0-8.821-7.179-16-16-16h-24.31c-6.891,0-12.991-4.395-15.179-10.934l-5.803-17.418
			c-0.725-2.187-2.763-3.648-5.066-3.648H151.68c-2.293,0-4.331,1.461-5.066,3.648L140.822,58.4
			c-2.176,6.539-8.277,10.934-15.179,10.934H58.666z"/>
	</g>
	<g>
		<path fill="#FFFFFF" d="M181.333,208c-35.296,0-64-28.704-64-64s28.704-64,64-64s64,28.704,64,64S216.629,208,181.333,208z
			 M181.333,90.667C151.925,90.667,128,114.592,128,144s23.925,53.334,53.333,53.334s53.333-23.926,53.333-53.334
			S210.741,90.667,181.333,90.667z"/>
	</g>
	<g>
		<path fill="#FFFFFF" d="M181.333,186.666c-23.53,0-42.667-19.135-42.667-42.666c0-23.531,19.137-42.667,42.667-42.667
			S224,120.469,224,144C224,167.531,204.864,186.666,181.333,186.666z M181.333,112c-17.643,0-32,14.357-32,32s14.357,32,32,32
			s32-14.357,32-32S198.976,112,181.333,112z"/>
	</g>
	<g>
		<path fill="#FFFFFF" d="M80,48H58.666c-2.943,0-5.333-2.389-5.333-5.333c0-2.944,2.39-5.333,5.333-5.333H80
			c2.943,0,5.333,2.389,5.333,5.333C85.333,45.611,82.944,48,80,48z"/>
	</g>
	<g>
		<path fill="#FFFFFF" d="M80,90.667H58.666c-2.943,0-5.333-2.389-5.333-5.333c0-2.944,2.39-5.333,5.333-5.333H80
			c2.943,0,5.333,2.389,5.333,5.333C85.333,88.277,82.944,90.667,80,90.667z"/>
	</g>
</g>
<text transform="matrix(1 0 0 1 31.9983 415.998)" font-family="'Arial-BoldMT'" font-size="53.3333">Created by icon 54</text>
<text transform="matrix(1 0 0 1 31.9983 469.334)" font-family="'Arial-BoldMT'" font-size="53.3333">from the Noun Project</text>
</svg>
